# Blender 4.2.3 LTS
# www.blender.org
mtllib level_collision.mtl
o Cube
v 3.851428 -8.531101 154.058868
v 3.851428 -8.531101 169.901901
v -4.131564 -8.531101 169.901886
v -4.131562 -8.531101 154.058868
v 3.851430 3.351173 154.058868
v 3.851425 3.351173 169.901901
v -4.131565 3.351173 169.901886
v -4.131563 3.351173 154.058868
v 3.851428 -8.531101 183.764542
v -4.131564 -8.531101 183.764542
v 3.851425 3.351173 183.764557
v -4.131565 3.351173 183.764542
v 3.851426 -8.531101 191.686066
v -4.131565 -8.531101 191.686066
v 3.851424 3.351173 191.686066
v -4.131566 3.351173 191.686066
v 19.817410 -8.531099 183.764557
v 19.817406 -4.570341 183.764557
v 19.817408 -8.531099 191.686066
v 19.817406 -4.570341 191.686066
v 29.796148 -8.531092 183.764557
v 29.796144 -4.570334 183.764557
v 29.796146 -8.531092 191.686066
v 29.796144 -4.570334 191.686066
v 3.851429 -8.531100 152.078491
v -4.131561 -8.531100 150.098099
v 3.851431 3.351173 152.078491
v -4.131562 3.351173 150.098099
v 11.834419 -8.531100 144.156967
v 9.838673 -8.531100 136.235443
v 11.834421 3.351173 144.156967
v 9.838672 3.351173 136.235458
v 19.817410 -8.531100 144.156967
v 19.817411 -8.531100 136.235443
v 19.817413 3.351173 144.156967
v 19.817410 3.351173 136.235458
v 9.838673 -8.531099 124.353180
v 9.838672 3.351174 124.353180
v 19.817411 -8.531099 124.353180
v 19.817410 3.351174 124.353180
v 29.796148 -8.531100 144.156967
v 29.796150 -8.531100 136.235443
v 29.796152 3.351174 144.156967
v 29.796148 3.351174 136.235458
v 29.796150 -8.531099 124.353180
v 29.796148 3.351175 124.353180
v -12.114555 -8.531101 173.862656
v -12.114553 -8.531101 154.058868
v -12.114556 19.194204 173.862656
v -12.114555 19.194204 154.058868
v -20.097546 -8.531102 173.862656
v -20.097544 -8.531102 154.058868
v -20.097548 19.194204 173.862656
v -20.097546 19.194204 154.058868
v -12.114555 -8.531101 193.666443
v -12.114556 19.194204 193.666443
v -20.097546 -8.531102 193.666443
v -20.097548 19.194204 193.666443
v -12.114556 -8.531100 203.568329
v -12.114558 19.194204 203.568329
v -20.097548 -8.531101 203.568329
v -20.097549 19.194204 203.568329
v -12.114552 -8.531100 146.137344
v -12.114554 19.194204 146.137344
v -20.097542 -8.531102 146.137344
v -20.097546 19.194204 146.137344
v -12.114552 -8.531099 130.294312
v -12.114553 19.194204 130.294312
v -20.097542 -8.531101 130.294312
v -20.097546 19.194204 130.294312
v -4.131560 -8.531100 146.137344
v -4.131562 19.194204 146.137344
v -4.131559 -8.531099 130.294312
v -4.131561 19.194204 130.294312
v -12.114552 -8.531099 124.353180
v -12.114553 19.194204 124.353180
v -20.097542 -8.531100 124.353180
v -20.097546 19.194204 124.353180
v -4.131559 -8.531098 124.353180
v -4.131561 19.194204 124.353180
v 9.838675 -8.531098 130.294312
v 9.838673 19.194204 130.294312
v 9.838675 -8.531097 124.353180
v 9.838673 19.194204 124.353180
v 19.817411 -8.531104 167.921509
v 19.817415 -4.570346 167.921524
v 29.796150 -8.531103 167.921509
v 29.796154 -4.570345 167.921524
v -30.076284 -8.531103 173.862656
v -30.076283 -8.531103 154.058853
v -30.076286 19.194202 173.862656
v -30.076284 19.194202 154.058868
v -30.076281 -8.531103 146.137344
v -30.076284 19.194202 146.137344
v -30.076281 -8.531102 130.294312
v -30.076284 19.194202 130.294312
v -30.076281 -8.531102 124.353180
v -30.076284 19.194202 124.353180
v -12.114555 -1.599774 173.862656
v -12.114555 5.331552 173.862656
v -12.114556 12.262878 173.862656
v -12.114553 -1.599774 154.058868
v -12.114554 5.331552 154.058868
v -12.114555 12.262878 154.058868
v -20.097546 -1.599775 173.862656
v -20.097546 5.331551 173.862656
v -20.097546 12.262878 173.862656
v -12.114553 -1.599774 146.137344
v -12.114553 5.331553 146.137344
v -12.114553 12.262878 146.137344
v -4.131561 -1.599773 146.137344
v -4.131561 5.331553 146.137344
v -4.131562 12.262878 146.137344
v -4.131560 -1.599773 130.294312
v -4.131560 5.331553 130.294312
v -4.131561 12.262878 130.294312
v -12.114552 -1.599773 124.353180
v -12.114552 5.331553 124.353180
v -12.114553 12.262878 124.353180
v -20.097542 -1.599774 124.353180
v -20.097544 5.331553 124.353180
v -20.097546 12.262878 124.353180
v -4.131560 -1.599772 124.353180
v -4.131560 5.331553 124.353180
v -4.131561 12.262878 124.353180
v 9.838675 -1.599772 130.294312
v 9.838674 5.331553 130.294312
v 9.838673 12.262878 130.294312
v 9.838675 -1.599772 124.353180
v 9.838674 5.331554 124.353180
v 9.838673 12.262879 124.353180
v -30.076284 5.331550 173.862656
v -30.076284 13.253066 173.862656
v -60.012497 -8.531106 124.353180
v -30.076284 13.253066 154.058868
v -60.012497 -8.531106 130.294312
v -60.012497 -8.531107 146.137344
v -30.076284 13.253066 146.137344
v -60.012501 -8.531107 154.058853
v -60.012501 -8.531107 173.862640
v -30.076284 13.253066 130.294312
v -30.076281 -1.599775 124.353180
v -30.076283 5.331551 124.353180
v -30.076284 13.253066 124.353180
v -50.033764 -8.531106 173.862656
v -50.033764 -8.531106 154.058853
v -50.033760 -8.531106 146.137344
v -50.033760 -8.531105 130.294312
v -50.033760 -8.531105 124.353180
v -50.033764 13.253063 173.862640
v -50.033764 13.253063 154.058853
v -50.033764 13.253063 146.137344
v -50.033764 13.253063 130.294312
v -50.033760 -1.599778 124.353180
v -50.033764 5.331548 124.353180
v -50.033764 13.253063 124.353180
v -60.012501 5.331546 173.862640
v -60.012501 13.253062 173.862640
v -60.012501 5.331546 154.058853
v -60.012501 13.253062 154.058853
v -60.012501 5.331546 146.137344
v -60.012501 13.253062 146.137344
v -60.012501 5.331547 130.294312
v -60.012501 13.253062 130.294312
v -60.012497 -1.599779 124.353180
v -60.012501 5.331547 124.353180
v -60.012501 13.253062 124.353180
v -20.097548 -8.531101 199.607574
v -30.076286 -8.531102 199.607574
v -20.097548 -1.599775 199.607574
v -20.097548 5.331552 199.607574
v -30.076286 5.331551 199.607574
v -30.076286 13.253067 199.607574
v -60.012505 -8.531106 199.607574
v -50.033768 -8.531105 199.607574
v -50.033768 5.331548 199.607574
v -50.033768 13.253064 199.607574
v -60.012505 5.331547 199.607574
v -60.012505 13.253063 199.607574
v -99.927460 -1.599786 173.862640
v -99.927460 -8.531112 124.353180
v -99.927460 -8.531112 130.294312
v -99.927460 -8.531113 146.137344
v -99.927460 -8.531113 154.058853
v -99.927460 -8.531113 173.862640
v -99.927460 5.331541 173.862640
v -99.927460 -1.599786 154.058853
v -99.927460 5.331541 154.058853
v -99.927460 -1.599786 146.137344
v -99.927460 5.331541 146.137344
v -99.927460 -1.599785 130.294312
v -99.927460 5.331542 130.294312
v -99.927460 -1.599785 124.353180
v -99.927460 5.331542 124.353180
v -99.927460 -1.599785 199.607574
v -99.927460 -8.531112 199.607574
v -99.927460 5.331542 199.607574
v -20.097551 -8.531101 229.313263
v -30.076290 -8.531102 229.313263
v -20.097551 -1.599775 229.313263
v -20.097551 5.331552 229.313263
v -30.076290 -1.599776 229.313263
v -30.076290 5.331551 229.313263
v -60.012508 -1.599779 229.313263
v -60.012508 -8.531106 229.313263
v -50.033772 -8.531105 229.313263
v -50.033772 -1.599778 229.313263
v -50.033772 5.331548 229.313263
v -60.012508 5.331547 229.313263
v -99.927460 -1.599785 229.313263
v -99.927460 -8.531112 229.313263
v -99.927460 5.331542 229.313263
v 19.817410 -8.531100 148.117722
v 19.817413 1.370795 148.117722
v 29.796148 -8.531100 148.117722
v 29.796152 1.370795 148.117722
v 19.817410 -8.531100 156.039246
v 19.817413 -2.589963 156.039246
v 29.796148 -8.531100 156.039246
v 29.796152 -2.589963 156.039246
v 19.817410 -8.531100 160.000000
v 19.817413 -4.570343 160.000000
v 29.796148 -8.531100 160.000000
v 29.796152 -4.570342 160.000000
v -278.679596 -8.531126 494.558197
v 198.569595 -8.531058 494.558197
v -278.679535 -8.531149 -121.087952
v 198.569687 -8.531081 -121.087952
vn -0.0000 -1.0000 -0.0000
vn -0.0000 1.0000 -0.0000
vn 1.0000 -0.0000 -0.0000
vn -0.0000 -0.0000 1.0000
vn -1.0000 -0.0000 -0.0000
vn -0.0000 -0.0000 -1.0000
vn 0.4445 0.8958 -0.0000
vn 0.7044 -0.0000 0.7098
vn -0.7044 -0.0000 -0.7098
vn -0.0000 0.8944 0.4472
s 0
usemtl Material.002
f 1//1 2//1 3//1 4//1
f 5//2 8//2 7//2 6//2
f 1//3 5//3 6//3 2//3
f 2//4 6//4 7//4 3//4
f 3//5 7//5 8//5 4//5
f 4//5 8//5 28//5 26//5
f 9//6 10//6 12//6 11//6
f 13//4 15//4 16//4 14//4
f 11//2 12//2 16//2 15//2
f 10//1 9//1 13//1 14//1
f 13//1 9//1 17//1 19//1
f 12//5 10//5 14//5 16//5
f 20//4 19//4 23//4 24//4
f 9//6 11//6 18//6 17//6
f 15//4 13//4 19//4 20//4
f 11//7 15//7 20//7 18//7
f 21//3 22//3 24//3 23//3
f 18//2 20//2 24//2 22//2
f 19//1 17//1 21//1 23//1
f 28//2 27//2 31//2 32//2
f 1//1 4//1 26//1 25//1
f 8//2 5//2 27//2 28//2
f 5//3 1//3 25//3 27//3
f 25//1 26//1 30//1 29//1
f 27//8 25//8 29//8 31//8
f 26//9 28//9 32//9 30//9
f 29//1 30//1 34//1 33//1
f 31//4 29//4 33//4 35//4
f 34//1 30//1 37//1 39//1
f 32//2 31//2 35//2 36//2
f 33//1 34//1 42//1 41//1
f 37//6 38//6 40//6 39//6
f 30//5 32//5 38//5 37//5
f 35//5 33//5 213//5 214//5
f 32//2 36//2 40//2 38//2
f 43//3 41//3 42//3 44//3
f 44//3 42//3 45//3 46//3
f 36//2 35//2 43//2 44//2
f 34//1 39//1 45//1 42//1
f 39//6 40//6 46//6 45//6
f 40//2 36//2 44//2 46//2
f 101//3 104//3 50//3 49//3
f 54//2 66//2 94//2 92//2
f 54//2 50//2 64//2 66//2
f 49//2 50//2 54//2 53//2
f 48//1 47//1 51//1 52//1
f 101//4 49//4 53//4 107//4
f 55//6 57//6 58//6 56//6
f 59//4 60//4 62//4 61//4
f 58//5 57//5 61//5 62//5
f 56//2 58//2 62//2 60//2
f 57//1 55//1 59//1 61//1
f 55//3 56//3 60//3 59//3
f 66//2 64//2 68//2 70//2
f 102//3 48//3 63//3 108//3
f 52//1 51//1 89//1 90//1
f 48//1 52//1 65//1 63//1
f 67//1 69//1 77//1 75//1
f 63//1 67//1 73//1 71//1
f 70//2 78//2 98//2 96//2
f 63//1 65//1 69//1 67//1
f 111//3 71//3 73//3 114//3
f 108//4 63//4 71//4 111//4
f 73//1 79//1 83//1 81//1
f 68//2 64//2 72//2 74//2
f 117//6 75//6 77//6 120//6
f 119//6 76//6 80//6 125//6
f 73//1 67//1 75//1 79//1
f 68//2 74//2 80//2 76//2
f 69//1 65//1 93//1 95//1
f 70//2 68//2 76//2 78//2
f 126//3 81//3 83//3 129//3
f 80//2 74//2 82//2 84//2
f 114//4 73//4 81//4 126//4
f 125//6 80//6 84//6 131//6
f 43//10 35//10 214//10 216//10
f 41//3 43//3 216//3 215//3
f 33//1 41//1 215//1 213//1
f 22//2 88//2 86//2 18//2
f 18//5 86//5 85//5 17//5
f 17//1 85//1 87//1 21//1
f 21//3 87//3 88//3 22//3
f 133//5 91//5 92//5 135//5
f 135//5 92//5 94//5 138//5
f 138//5 94//5 96//5 141//5
f 141//5 96//5 98//5 144//5
f 107//4 53//4 91//4 133//4
f 120//6 77//6 97//6 142//6
f 66//2 70//2 96//2 94//2
f 65//1 52//1 90//1 93//1
f 77//1 69//1 95//1 97//1
f 53//2 54//2 92//2 91//2
f 47//3 48//3 102//3 99//3
f 99//3 102//3 103//3 100//3
f 100//3 103//3 104//3 101//3
f 47//4 99//4 105//4 51//4
f 99//4 100//4 106//4 105//4
f 100//4 101//4 107//4 106//4
f 50//3 104//3 110//3 64//3
f 104//3 103//3 109//3 110//3
f 103//3 102//3 108//3 109//3
f 72//3 113//3 116//3 74//3
f 113//3 112//3 115//3 116//3
f 112//3 111//3 114//3 115//3
f 64//4 110//4 113//4 72//4
f 110//4 109//4 112//4 113//4
f 109//4 108//4 111//4 112//4
f 76//6 119//6 122//6 78//6
f 119//6 118//6 121//6 122//6
f 118//6 117//6 120//6 121//6
f 75//6 117//6 123//6 79//6
f 117//6 118//6 124//6 123//6
f 118//6 119//6 125//6 124//6
f 82//3 128//3 131//3 84//3
f 128//3 127//3 130//3 131//3
f 127//3 126//3 129//3 130//3
f 74//4 116//4 128//4 82//4
f 116//4 115//4 127//4 128//4
f 115//4 114//4 126//4 127//4
f 79//6 123//6 129//6 83//6
f 123//6 124//6 130//6 129//6
f 124//6 125//6 131//6 130//6
f 90//1 89//1 145//1 146//1
f 93//1 90//1 146//1 147//1
f 158//5 157//5 178//5 179//5
f 144//6 143//6 155//6 156//6
f 97//1 95//1 148//1 149//1
f 133//2 150//2 177//2 173//2
f 143//6 142//6 154//6 155//6
f 135//2 138//2 152//2 151//2
f 141//2 144//2 156//2 153//2
f 161//2 163//2 192//2 190//2
f 142//6 97//6 149//6 154//6
f 95//1 93//1 147//1 148//1
f 197//5 195//5 210//5 212//5
f 105//3 106//3 171//3 170//3
f 106//4 107//4 133//4 132//4
f 78//6 122//6 144//6 98//6
f 122//6 121//6 143//6 144//6
f 121//6 120//6 142//6 143//6
f 148//1 147//1 137//1 136//1
f 147//1 146//1 139//1 137//1
f 146//1 145//1 140//1 139//1
f 145//1 89//1 169//1 175//1
f 156//6 155//6 166//6 167//6
f 151//2 152//2 162//2 160//2
f 153//2 156//2 167//2 164//2
f 89//1 51//1 168//1 169//1
f 155//6 154//6 165//6 166//6
f 150//2 158//2 179//2 177//2
f 154//6 149//6 134//6 165//6
f 149//1 148//1 136//1 134//1
f 138//2 141//2 153//2 152//2
f 133//2 135//2 151//2 150//2
f 140//1 174//1 196//1 185//1
f 166//6 165//6 193//6 194//6
f 157//5 158//5 160//5 159//5
f 178//2 157//2 186//2 197//2
f 159//2 161//2 190//2 188//2
f 159//5 160//5 162//5 161//5
f 163//2 166//2 194//2 192//2
f 165//6 134//6 181//6 193//6
f 161//5 162//5 164//5 163//5
f 139//1 140//1 185//1 184//1
f 134//1 136//1 182//1 181//1
f 163//5 164//5 167//5 166//5
f 152//2 153//2 164//2 162//2
f 150//2 151//2 160//2 158//2
f 172//4 173//4 177//4 176//4
f 169//1 168//1 198//1 199//1
f 195//5 196//5 211//5 210//5
f 178//2 197//2 212//2 209//2
f 171//2 172//2 203//2 201//2
f 176//4 177//4 179//4 178//4
f 174//1 175//1 206//1 205//1
f 196//1 174//1 205//1 211//1
f 132//3 133//3 173//3 172//3
f 106//2 132//2 172//2 171//2
f 140//1 145//1 175//1 174//1
f 51//3 105//3 170//3 168//3
f 186//5 180//5 195//5 197//5
f 180//5 185//5 196//5 195//5
f 185//5 180//5 187//5 184//5
f 180//5 186//5 188//5 187//5
f 184//5 187//5 189//5 183//5
f 187//5 188//5 190//5 189//5
f 183//5 189//5 191//5 182//5
f 189//5 190//5 192//5 191//5
f 182//5 191//5 193//5 181//5
f 191//5 192//5 194//5 193//5
f 136//1 137//1 183//1 182//1
f 157//2 159//2 188//2 186//2
f 176//2 178//2 209//2 208//2
f 137//1 139//1 184//1 183//1
f 205//4 204//4 210//4 211//4
f 202//4 203//4 208//4 207//4
f 199//4 202//4 207//4 206//4
f 198//4 200//4 202//4 199//4
f 200//4 201//4 203//4 202//4
f 207//4 208//4 209//4 204//4
f 206//4 207//4 204//4 205//4
f 204//4 209//4 212//4 210//4
f 172//2 176//2 208//2 203//2
f 168//3 170//3 200//3 198//3
f 175//1 169//1 199//1 206//1
f 170//3 171//3 201//3 200//3
f 215//3 216//3 220//3 219//3
f 213//1 215//1 219//1 217//1
f 214//5 213//5 217//5 218//5
f 216//10 214//10 218//10 220//10
f 217//1 219//1 223//1 221//1
f 218//5 217//5 221//5 222//5
f 220//10 218//10 222//10 224//10
f 219//3 220//3 224//3 223//3
f 86//2 88//2 224//2 222//2
f 88//3 87//3 223//3 224//3
f 87//1 85//1 221//1 223//1
f 85//5 86//5 222//5 221//5
f 226//1 225//1 227//1 228//1
